<svg width="81" height="81" viewBox="0 0 81 81" fill="none" xmlns="http://www.w3.org/2000/svg">
<path d="M14.9046 0.352405C14.4298 0.337262 13.9479 0.526563 13.581 0.897594C13.0271 1.45035 0 14.7166 0 30.2772C0 40.1134 3.92756 47.7612 11.3367 52.5694C11.3439 52.577 11.3295 52.6224 11.3367 52.63C12.2143 56.3479 12.8113 59.7175 12.315 62.8674C12.1495 63.9275 12.8041 64.874 13.8112 65.0482C13.9119 65.0709 14.0558 65.1088 14.1565 65.1088C15.0413 65.1088 15.7894 64.4197 15.9404 63.4732C16.5303 59.7175 15.8757 55.9541 14.9621 52.0242C14.4946 50.3205 13.8472 48.6471 13.2933 46.8752C10.6749 38.4929 7.6609 29.0354 11.7971 19.2523C12.2143 18.2755 13.3364 17.8439 14.2716 18.2831C15.1995 18.7223 15.6023 19.8505 15.1923 20.8273C11.6316 29.2399 14.2212 37.5691 16.7461 45.6637C16.9259 46.2316 17.0914 46.7995 17.264 47.3598C17.7603 46.8146 18.3862 46.2695 18.9904 45.7848C21.2419 44.013 29.2409 34.8205 27.2771 22.2811C25.5795 11.4455 16.5591 1.38221 16.1706 0.958171C15.8181 0.571995 15.3794 0.36755 14.9046 0.352405ZM47.7062 33.4878C46.4258 33.4878 45.1238 33.5257 43.8506 33.6695C35.2761 34.6463 28.7446 38.1143 24.5149 43.907C17.674 53.2736 19.3788 65.3284 19.4508 65.8357C19.4508 65.8584 19.4508 65.8736 19.4508 65.8963C13.9551 71.9236 11.4518 77.2165 11.2792 77.5875C10.8332 78.5492 11.1712 79.7229 12.0848 80.1923C12.3438 80.3211 12.6171 80.3741 12.8905 80.3741C13.5738 80.3741 14.2428 79.9727 14.5593 79.2837C14.5953 79.208 16.6238 74.9525 21.0045 69.8337C25.1479 64.4803 30.6508 58.5211 37.6355 55.0531C49.4542 49.1847 61.8123 49.5709 62.3231 49.6012C63.3373 49.639 64.143 50.5325 64.107 51.6002C64.071 52.6451 63.251 53.4781 62.2655 53.4781C62.2295 53.4781 62.431 53.4175 61.69 53.4175C59.3306 53.4175 48.965 53.7431 39.2468 58.5665C32.6937 61.8149 27.4426 67.1684 23.5366 72.3174C24.1193 72.7868 24.594 73.0746 24.7451 73.1655C25.076 73.3548 32.8807 77.7693 42.8147 77.7693C44.0664 77.7693 45.3468 77.6633 46.5553 77.527C69.0848 74.9146 80.328 52.259 80.7955 51.2973C81.148 50.5628 81.0401 49.7147 80.5078 49.1166C79.9323 48.4805 66.3369 33.4878 47.7062 33.4878Z" fill="#FF0000"/>
</svg>
