<svg width="61" height="63" viewBox="0 0 61 63" fill="none" xmlns="http://www.w3.org/2000/svg">
<path d="M30.5 0.351562C47.3665 0.351562 61 14.2435 61 31.3603C61 48.5081 47.3665 62.369 30.5 62.369C13.664 62.369 0 48.5081 0 31.3603C0 14.2435 13.664 0.351562 30.5 0.351562ZM29.4325 15.6389C28.182 15.6389 27.145 16.6621 27.145 17.9645V33.6239C27.145 34.4301 27.572 35.1744 28.2735 35.6085L40.2295 42.8645C40.5955 43.0816 40.992 43.2056 41.419 43.2056C42.1815 43.2056 42.944 42.8025 43.371 42.0583C44.0115 40.973 43.676 39.5466 42.578 38.8644L31.72 32.2905V17.9645C31.72 16.6621 30.683 15.6389 29.4325 15.6389Z" fill="#FF0000"/>
</svg>
