<svg width="90" height="71" viewBox="0 0 90 71" fill="none" xmlns="http://www.w3.org/2000/svg">
<path d="M21.3125 0.351562C9.54025 0.351562 0 9.8945 0 21.6701C0 26.226 1.44209 30.4398 3.875 33.904V50.7407C3.875 55.0238 7.34312 58.4929 11.625 58.4929C11.625 64.9156 16.8291 70.1212 23.25 70.1212C29.6709 70.1212 34.875 64.9156 34.875 58.4929H58.125C58.125 64.9156 63.3291 70.1212 69.75 70.1212C76.1709 70.1212 81.375 64.9156 81.375 58.4929C81.9102 58.4929 82.4295 58.4372 82.9341 58.3339C86.4664 57.6114 89.125 54.4884 89.125 50.7407V39.1125L78.5671 17.9984C77.9123 16.6844 76.577 15.8559 75.1084 15.8559H62C62 11.5728 58.5319 8.10374 54.25 8.10374H37.751C33.8422 3.37068 27.9305 0.351562 21.3125 0.351562ZM21.3125 7.13472C29.326 7.13472 35.8438 13.6543 35.8438 21.6701C35.8438 29.6858 29.326 36.2054 21.3125 36.2054C13.299 36.2054 6.78125 29.6858 6.78125 21.6701C6.78125 13.6543 13.299 7.13472 21.3125 7.13472ZM21.3428 12.3356L17.9976 22.4422L24.8167 29.3692L28.9565 25.2963L24.6274 20.8979L26.8601 14.1601L21.3428 12.3356ZM62 22.6391H73.3071L81.5415 39.1125H62V22.6391ZM23.25 53.6478C25.9199 53.6478 28.0938 55.8223 28.0938 58.4929C28.0938 61.1635 25.9199 63.338 23.25 63.338C20.5801 63.338 18.4062 61.1635 18.4062 58.4929C18.4062 55.8223 20.5801 53.6478 23.25 53.6478ZM69.75 53.6478C72.4199 53.6478 74.5938 55.8223 74.5938 58.4929C74.5938 61.1635 72.4199 63.338 69.75 63.338C67.0801 63.338 64.9062 61.1635 64.9062 58.4929C64.9062 55.8223 67.0801 53.6478 69.75 53.6478Z" fill="#FF0000"/>
</svg>
