<svg width="47" height="70" viewBox="0 0 47 70" fill="none" xmlns="http://www.w3.org/2000/svg">
<path d="M23.5 0.882812C10.5213 0.882812 0 11.9313 0 25.5604C0 39.542 14.7849 60.1794 20.9016 68.115C22.2444 69.8565 24.7556 69.8565 26.0984 68.115C32.2151 60.1794 47 39.542 47 25.5604C47 11.9313 36.4787 0.882812 23.5 0.882812ZM23.5 34.3738C18.8638 34.3738 15.1071 30.4289 15.1071 25.5604C15.1071 20.6918 18.8638 16.7469 23.5 16.7469C28.1362 16.7469 31.8929 20.6918 31.8929 25.5604C31.8929 30.4289 28.1362 34.3738 23.5 34.3738Z" fill="#FF0000"/>
</svg>
