<svg width="39" height="31" viewBox="0 0 39 31" fill="none" xmlns="http://www.w3.org/2000/svg">
<path d="M38.2992 8.32499V25.0734C38.2992 26.6316 37.6802 28.1259 36.5785 29.2277C35.4767 30.3295 33.9824 30.9484 32.4242 30.9484H6.57422C5.01607 30.9484 3.52174 30.3295 2.41997 29.2277C1.31819 28.1259 0.699219 26.6316 0.699219 25.0734V8.32499L18.9023 19.0363C19.0832 19.1429 19.2893 19.1992 19.4992 19.1992C19.7092 19.1992 19.9153 19.1429 20.0961 19.0363L38.2992 8.32499ZM32.4242 0.398438C33.8698 0.39821 35.2647 0.930963 36.3422 1.89478C37.4196 2.85859 38.1038 4.18579 38.264 5.62249L19.4992 16.6604L0.734469 5.62249C0.894641 4.18579 1.57888 2.85859 2.65629 1.89478C3.73369 0.930963 5.12862 0.39821 6.57422 0.398438H32.4242Z" fill="#F8FBFA"/>
</svg>
