<svg width="33" height="46" viewBox="0 0 33 46" fill="none" xmlns="http://www.w3.org/2000/svg">
<path d="M16.5 0C7.38729 0 0 7.41527 0 16.5625C0 25.9464 10.3809 39.7973 14.6756 45.1234C15.6184 46.2922 17.3816 46.2922 18.3244 45.1234C22.6191 39.7973 33 25.9464 33 16.5625C33 7.41527 25.6127 0 16.5 0ZM16.5 22.4777C13.2448 22.4777 10.6071 19.8301 10.6071 16.5625C10.6071 13.295 13.2448 10.6473 16.5 10.6473C19.7552 10.6473 22.3929 13.295 22.3929 16.5625C22.3929 19.8301 19.7552 22.4777 16.5 22.4777Z" fill="#F8FBFA"/>
</svg>
