<svg width="41" height="41" viewBox="0 0 41 41" fill="none" xmlns="http://www.w3.org/2000/svg">
<path d="M37.9338 9.48101C31.8007 -0.000313419 19.2789 -2.81908 9.56818 3.07471C0.112985 8.96851 -2.95356 21.7811 3.17953 31.2624L3.69063 32.0312L1.64626 39.7187L9.31263 37.6687L10.0793 38.1812C13.4014 39.975 16.979 41 20.5567 41C24.3898 41 28.223 39.975 31.5451 37.925C41.0003 31.7749 43.8113 19.2186 37.9338 9.48101ZM32.5673 29.2124C31.5451 30.7499 30.2674 31.7749 28.4786 32.0312C27.4564 32.0312 26.1787 32.5437 21.0677 30.4937C16.7235 28.4437 13.1458 25.1124 10.5904 21.2686C9.05709 19.4748 8.29045 17.1686 8.03491 14.8623C8.03491 12.8123 8.80154 11.0185 10.0793 9.73726C10.5904 9.22476 11.1015 8.96851 11.6125 8.96851H12.8903C13.4014 8.96851 13.9125 8.96851 14.168 9.99351C14.6791 11.2748 15.9568 14.3498 15.9568 14.606C16.2124 14.8623 16.2124 15.3748 15.9568 15.6311C16.2124 16.1436 15.9568 16.6561 15.7013 16.9123C15.4457 17.1686 15.1902 17.6811 14.9346 17.9373C14.4236 18.1936 14.168 18.7061 14.4236 19.2186C15.4457 20.7561 16.7235 22.2936 18.0012 23.5749C19.5345 24.8561 21.0677 25.8811 22.8566 26.6499C23.3677 26.9061 23.8787 26.9061 24.1343 26.3936C24.3898 25.8811 25.6676 24.5999 26.1787 24.0874C26.6897 23.5749 26.9453 23.5749 27.4564 23.8311L31.5451 25.8811C32.0562 26.1374 32.5673 26.3936 32.8228 26.6499C33.0784 27.4186 33.0784 28.4437 32.5673 29.2124Z" fill="#F8FBFA"/>
</svg>
